<svg width="30" height="30" viewBox="0 0 30 30" fill="none" xmlns="http://www.w3.org/2000/svg">
<path d="M10.728 18.264C11.2507 18.264 11.6773 18.0453 12.008 17.608C12.3387 17.16 12.504 16.584 12.504 15.88C12.504 14.2587 11.9067 13.448 10.712 13.448C9.54933 13.448 8.968 14.3013 8.968 16.008C8.968 16.68 9.13333 17.224 9.464 17.64C9.80533 18.056 10.2267 18.264 10.728 18.264ZM7 19.752V9H9.048V12.904C9.63467 12.0827 10.4133 11.672 11.384 11.672C11.896 11.672 12.3493 11.7733 12.744 11.976C13.1493 12.168 13.4907 12.4453 13.768 12.808C14.0453 13.1707 14.2533 13.6027 14.392 14.104C14.5413 14.5947 14.616 15.1387 14.616 15.736C14.616 16.3973 14.5307 16.9893 14.36 17.512C14.1893 18.0347 13.9547 18.4773 13.656 18.84C13.3573 19.2027 12.9947 19.48 12.568 19.672C12.152 19.864 11.6987 19.96 11.208 19.96C10.2267 19.96 9.496 19.5707 9.016 18.792L9 19.752H7Z" fill="#E6E6E6"/>
<path d="M20.8009 15.048C20.7902 14.76 20.7369 14.5093 20.6409 14.296C20.5555 14.072 20.4382 13.8907 20.2889 13.752C20.1395 13.6027 19.9689 13.496 19.7769 13.432C19.5849 13.3573 19.3875 13.32 19.1849 13.32C18.7689 13.32 18.4062 13.4747 18.0969 13.784C17.7982 14.0827 17.6275 14.504 17.5849 15.048H20.8009ZM17.5209 16.36C17.5529 16.9573 17.7235 17.432 18.0329 17.784C18.3529 18.136 18.7689 18.312 19.2809 18.312C19.6222 18.312 19.9209 18.2373 20.1769 18.088C20.4435 17.928 20.6142 17.7093 20.6889 17.432H22.8329C22.5875 18.2427 22.1609 18.8667 21.5529 19.304C20.9449 19.7413 20.2195 19.96 19.3769 19.96C16.7529 19.96 15.4409 18.5307 15.4409 15.672C15.4409 15.064 15.5262 14.5147 15.6969 14.024C15.8675 13.5333 16.1129 13.112 16.4329 12.76C16.7635 12.408 17.1635 12.1413 17.6329 11.96C18.1022 11.768 18.6409 11.672 19.2489 11.672C20.4649 11.672 21.3822 12.0613 22.0009 12.84C22.6302 13.6187 22.9449 14.792 22.9449 16.36H17.5209Z" fill="#E6E6E6"/>
<rect x="2" y="2" width="26" height="26" rx="4" stroke="#E6E6E6" stroke-width="3"/>
</svg>
