<svg width="424" height="402" viewBox="0 0 424 402" fill="none" xmlns="http://www.w3.org/2000/svg">
<path fill-rule="evenodd" clip-rule="evenodd" d="M279.449 402H144.551C144.551 364.71 174.774 334.434 212 334.434C249.226 334.434 279.449 364.71 279.449 402ZM298.142 284.608C316.76 252.314 358.043 241.232 390.273 259.877C422.514 278.523 433.573 319.88 414.966 352.174C396.347 384.47 355.065 395.551 322.835 376.905C290.594 358.26 279.534 316.904 298.142 284.608ZM125.858 284.608C144.466 316.904 133.406 358.26 101.165 376.905C68.9353 395.551 27.6527 384.47 9.03428 352.174C-9.57341 319.88 1.48646 278.523 33.727 259.877C65.9568 241.232 107.239 252.314 125.858 284.608ZM212 167.216C249.226 167.216 279.449 197.493 279.449 234.783C279.449 272.074 249.226 302.349 212 302.349C174.774 302.349 144.551 272.074 144.551 234.783C144.551 197.493 174.774 167.216 212 167.216ZM9.03428 117.391C27.6527 85.0964 68.9353 74.0154 101.165 92.6598C133.406 111.305 144.466 152.663 125.858 184.957C107.239 217.253 65.9568 228.334 33.727 209.688C1.48646 191.044 -9.57341 149.686 9.03428 117.391ZM414.966 117.391C433.573 149.686 422.514 191.044 390.273 209.688C358.043 228.334 316.76 217.253 298.142 184.957C279.534 152.663 290.594 111.305 322.835 92.6598C355.065 74.0154 396.347 85.0964 414.966 117.391ZM212 0C249.226 0 279.449 30.2752 279.449 67.5652C279.449 104.856 249.226 135.132 212 135.132C174.774 135.132 144.551 104.856 144.551 67.5652C144.551 30.2752 174.774 0 212 0Z" fill="#E6E6E6"/>
</svg>
