<svg width="326" height="218" viewBox="0 0 326 218" fill="none" xmlns="http://www.w3.org/2000/svg">
<path d="M162.975 109L108.654 163.321L162.974 217.642L217.296 163.32L162.975 109Z" fill="#BD3234"/>
<path d="M162.975 0.000117823L108.654 54.3215L162.974 108.642L217.296 54.3205L162.975 0.000117823Z" fill="#BD3234"/>
<path d="M271.68 109L217.358 163.321L271.679 217.642L326 163.32L271.68 109Z" fill="#BD3234"/>
<path d="M271.68 0.000129428L217.358 54.3215L271.679 108.642L326 54.3206L271.68 0.000129428Z" fill="#BD3234"/>
<path d="M54.3214 109L0 163.321L54.3204 217.642L108.642 163.32L54.3214 109Z" fill="#BD3234"/>
<path d="M54.3214 0.000129428L0 54.3215L54.3204 108.642L108.642 54.3206L54.3214 0.000129428Z" fill="#BD3234"/>
<path fill-rule="evenodd" clip-rule="evenodd" d="M237.683 95.5022C240.285 95.5022 242.716 96.861 244.165 99.1247C245.612 101.388 245.883 104.261 244.893 106.777C244.859 106.78 244.854 106.794 244.848 106.809C243.855 109.319 241.731 111.143 239.185 111.67C236.642 112.201 234.012 111.366 232.177 109.445C226.351 103.392 218.814 95.5022 218.814 95.5022H237.683Z" fill="#E6E6E6"/>
<path fill-rule="evenodd" clip-rule="evenodd" d="M195.798 95.5022C193.196 95.5022 190.765 96.861 189.316 99.1247C187.869 101.388 187.598 104.261 188.588 106.777C188.622 106.78 188.627 106.794 188.633 106.809C189.626 109.319 191.75 111.143 194.296 111.67C196.839 112.201 199.469 111.366 201.305 109.445C207.13 103.392 214.667 95.5022 214.667 95.5022H195.798Z" fill="#E6E6E6"/>
<path fill-rule="evenodd" clip-rule="evenodd" d="M225.54 109.184H207.163L216.352 99.5659L225.54 109.184Z" fill="#E6E6E6"/>
<path fill-rule="evenodd" clip-rule="evenodd" d="M210.051 91.229V90.7778C210.051 87.0344 212.95 83.9999 216.526 83.9999H216.527C220.103 83.9999 223.002 87.0344 223.002 90.7778V91.229H210.051Z" fill="#E6E6E6"/>
<path fill-rule="evenodd" clip-rule="evenodd" d="M231.322 118.434V126.309H228.928V112.383L239.675 123.632L237.981 125.404L231.322 118.434Z" fill="#E6E6E6"/>
<path fill-rule="evenodd" clip-rule="evenodd" d="M202.158 118.434L195.499 125.404L193.805 123.632L204.552 112.383V126.309H202.158V118.434Z" fill="#E6E6E6"/>
<path d="M225.808 113.526H207.163V117.813H225.808V113.526Z" fill="#E6E6E6"/>
<path fill-rule="evenodd" clip-rule="evenodd" d="M225.804 122.071V125.157C225.804 125.563 225.78 125.965 225.73 126.357H207.237C207.188 125.965 207.163 125.563 207.163 125.157V122.071H225.804Z" fill="#E6E6E6"/>
<path fill-rule="evenodd" clip-rule="evenodd" d="M224.253 130.618C222.574 133.196 219.749 134.887 216.546 134.887C213.336 134.887 210.51 133.196 208.831 130.618H224.253Z" fill="#E6E6E6"/>
</svg>
