<svg width="326" height="217" viewBox="0 0 326 217" fill="none" xmlns="http://www.w3.org/2000/svg">
<path d="M162.963 0.000117823L108.642 54.3215L162.962 108.642L217.284 54.3205L162.963 0.000117823Z" fill="#BD3234"/>
<path d="M162.963 107.642L108.642 161.963L162.962 216.284L217.284 161.962L162.963 107.642Z" fill="#BD3234"/>
<path d="M271.605 0.000129428L217.284 54.3215L271.604 108.642L325.926 54.3206L271.605 0.000129428Z" fill="#BD3234"/>
<path d="M271.605 107.642L217.284 161.963L271.604 216.284L325.926 161.962L271.605 107.642Z" fill="#BD3234"/>
<path d="M54.3214 0.000129428L0 54.3215L54.3204 108.642L108.642 54.3206L54.3214 0.000129428Z" fill="#BD3234"/>
<path d="M54.3214 107.642L0 161.963L54.3204 216.284L108.642 161.962L54.3214 107.642Z" fill="#BD3234"/>
</svg>
