<svg width="1272" height="463" viewBox="0 0 1272 463" fill="none" xmlns="http://www.w3.org/2000/svg">
<path d="M173.337 346.91L115.562 404.685L173.336 462.459L231.111 404.684L173.337 346.91Z" fill="#BD3234"/>
<path d="M1097.96 346.91L1040.18 404.685L1097.96 462.459L1155.73 404.684L1097.96 346.91Z" fill="#BD3234"/>
<path d="M173.337 0.1826L115.562 57.9578L173.336 115.732L231.111 57.9567L173.337 0.1826Z" fill="#BD3234"/>
<path d="M1097.96 0.1826L1040.18 57.9578L1097.96 115.732L1155.73 57.9567L1097.96 0.1826Z" fill="#BD3234"/>
<path d="M520.064 346.91L462.289 404.685L520.063 462.459L577.838 404.684L520.064 346.91Z" fill="#BD3234"/>
<path d="M751.229 346.91L693.454 404.685L751.228 462.459L809.003 404.684L751.229 346.91Z" fill="#BD3234"/>
<path d="M751.229 0.1826L693.454 57.9578L751.228 115.732L809.003 57.9567L751.229 0.1826Z" fill="#BD3234"/>
<path d="M520.064 0.1826L462.289 57.9578L520.063 115.732L577.838 57.9567L520.064 0.1826Z" fill="#BD3234"/>
<path d="M173.337 232.043L115.562 289.818L173.336 347.592L231.111 289.817L173.337 232.043Z" fill="#BD3234"/>
<path d="M1097.96 232.043L1040.18 289.818L1097.96 347.592L1155.73 289.817L1097.96 232.043Z" fill="#BD3234"/>
<path d="M173.337 116.113L115.562 173.888L173.336 231.662L231.111 173.887L173.337 116.113Z" fill="#BD3234"/>
<path d="M1097.96 116.113L1040.18 173.888L1097.96 231.662L1155.73 173.887L1097.96 116.113Z" fill="#BD3234"/>
<path d="M288.953 346.91L231.178 404.685L288.952 462.459L346.728 404.684L288.953 346.91Z" fill="#BD3234"/>
<path d="M1213.57 346.91L1155.8 404.685L1213.57 462.459L1271.35 404.684L1213.57 346.91Z" fill="#BD3234"/>
<path d="M288.953 0.182611L231.178 57.9578L288.952 115.732L346.728 57.9567L288.953 0.182611Z" fill="#BD3234"/>
<path d="M1213.57 0.182611L1155.8 57.9578L1213.57 115.732L1271.35 57.9567L1213.57 0.182611Z" fill="#BD3234"/>
<path d="M635.68 346.91L577.905 404.685L635.679 462.459L693.455 404.684L635.68 346.91Z" fill="#BD3234"/>
<path d="M866.845 346.91L809.07 404.685L866.844 462.459L924.62 404.684L866.845 346.91Z" fill="#BD3234"/>
<path d="M866.845 0.182611L809.07 57.9578L866.844 115.732L924.62 57.9567L866.845 0.182611Z" fill="#BD3234"/>
<path d="M635.68 0.182611L577.905 57.9578L635.679 115.732L693.455 57.9567L635.68 0.182611Z" fill="#BD3234"/>
<path d="M288.953 232.043L231.178 289.818L288.952 347.592L346.728 289.817L288.953 232.043Z" fill="#BD3234"/>
<path d="M1213.57 232.043L1155.8 289.818L1213.57 347.592L1271.35 289.817L1213.57 232.043Z" fill="#BD3234"/>
<path d="M288.953 116.113L231.178 173.888L288.952 231.662L346.728 173.887L288.953 116.113Z" fill="#BD3234"/>
<path d="M1213.57 116.113L1155.8 173.888L1213.57 231.662L1271.35 173.887L1213.57 116.113Z" fill="#BD3234"/>
<path d="M57.7752 346.91L0 404.685L57.7741 462.459L115.549 404.684L57.7752 346.91Z" fill="#BD3234"/>
<path d="M982.394 346.91L924.619 404.685L982.393 462.459L1040.17 404.684L982.394 346.91Z" fill="#BD3234"/>
<path d="M57.7752 0.182611L0 57.9578L57.7741 115.732L115.549 57.9567L57.7752 0.182611Z" fill="#BD3234"/>
<path d="M982.394 0.182611L924.619 57.9578L982.393 115.732L1040.17 57.9567L982.394 0.182611Z" fill="#BD3234"/>
<path d="M404.502 346.91L346.727 404.685L404.501 462.459L462.276 404.684L404.502 346.91Z" fill="#BD3234"/>
<path d="M404.502 0.182611L346.727 57.9578L404.501 115.732L462.276 57.9567L404.502 0.182611Z" fill="#BD3234"/>
<path d="M57.7752 232.043L0 289.818L57.7741 347.592L115.549 289.817L57.7752 232.043Z" fill="#BD3234"/>
<path d="M982.394 232.043L924.619 289.818L982.393 347.592L1040.17 289.817L982.394 232.043Z" fill="#BD3234"/>
<path d="M57.7752 116.113L0 173.888L57.7741 231.662L115.549 173.887L57.7752 116.113Z" fill="#BD3234"/>
<path d="M982.394 116.113L924.619 173.888L982.393 231.662L1040.17 173.887L982.394 116.113Z" fill="#BD3234"/>
<path fill-rule="evenodd" clip-rule="evenodd" d="M252.795 332.554C255.562 332.554 258.148 333.999 259.689 336.407C261.228 338.814 261.517 341.87 260.463 344.546C260.427 344.549 260.421 344.564 260.415 344.58C259.359 347.249 257.1 349.19 254.393 349.75C251.688 350.314 248.89 349.426 246.938 347.383C240.743 340.945 232.726 332.554 232.726 332.554H252.795Z" fill="#E6E6E6"/>
<path fill-rule="evenodd" clip-rule="evenodd" d="M208.247 332.554C205.48 332.554 202.894 333.999 201.353 336.407C199.814 338.814 199.525 341.87 200.579 344.546C200.615 344.549 200.621 344.564 200.626 344.58C201.683 347.249 203.941 349.19 206.649 349.75C209.354 350.314 212.152 349.426 214.104 347.383C220.299 340.945 228.316 332.554 228.316 332.554H208.247Z" fill="#E6E6E6"/>
<path fill-rule="evenodd" clip-rule="evenodd" d="M239.881 347.105H220.335L230.108 336.876L239.881 347.105Z" fill="#E6E6E6"/>
<path fill-rule="evenodd" clip-rule="evenodd" d="M223.406 328.009V327.529C223.406 323.548 226.49 320.32 230.293 320.32H230.293C234.097 320.32 237.181 323.548 237.181 327.529V328.009H223.406Z" fill="#E6E6E6"/>
<path fill-rule="evenodd" clip-rule="evenodd" d="M246.029 356.944V365.319H243.483V350.508L254.914 362.472L253.112 364.357L246.029 356.944Z" fill="#E6E6E6"/>
<path fill-rule="evenodd" clip-rule="evenodd" d="M215.011 356.944L207.929 364.357L206.127 362.472L217.557 350.508V365.319H215.011V356.944Z" fill="#E6E6E6"/>
<path d="M240.165 351.724H220.335V356.283H240.165V351.724Z" fill="#E6E6E6"/>
<path fill-rule="evenodd" clip-rule="evenodd" d="M240.161 360.812V364.094C240.161 364.526 240.135 364.954 240.083 365.371H220.413C220.361 364.954 220.335 364.526 220.335 364.094V360.812H240.161Z" fill="#E6E6E6"/>
<path fill-rule="evenodd" clip-rule="evenodd" d="M238.511 369.903C236.726 372.644 233.721 374.443 230.315 374.443C226.9 374.443 223.895 372.644 222.109 369.903H238.511Z" fill="#E6E6E6"/>
<path fill-rule="evenodd" clip-rule="evenodd" d="M1133.29 246.889C1130.53 246.889 1127.94 245.444 1126.4 243.037C1124.86 240.629 1124.57 237.573 1125.63 234.898C1125.66 234.895 1125.67 234.879 1125.67 234.864C1126.73 232.194 1128.99 230.254 1131.7 229.693C1134.4 229.129 1137.2 230.017 1139.15 232.06C1145.35 238.498 1153.36 246.889 1153.36 246.889L1133.29 246.889Z" fill="#E6E6E6"/>
<path fill-rule="evenodd" clip-rule="evenodd" d="M1177.84 246.889C1180.61 246.889 1183.2 245.444 1184.74 243.037C1186.27 240.629 1186.56 237.573 1185.51 234.898C1185.47 234.895 1185.47 234.879 1185.46 234.864C1184.41 232.194 1182.15 230.254 1179.44 229.693C1176.73 229.129 1173.94 230.017 1171.99 232.06C1165.79 238.498 1157.77 246.889 1157.77 246.889L1177.84 246.889Z" fill="#E6E6E6"/>
<path fill-rule="evenodd" clip-rule="evenodd" d="M1146.21 232.338L1165.75 232.338L1155.98 242.567L1146.21 232.338Z" fill="#E6E6E6"/>
<path fill-rule="evenodd" clip-rule="evenodd" d="M1162.68 251.434L1162.68 251.914C1162.68 255.896 1159.6 259.123 1155.8 259.123L1155.8 259.123C1151.99 259.123 1148.91 255.896 1148.91 251.914L1148.91 251.434L1162.68 251.434Z" fill="#E6E6E6"/>
<path fill-rule="evenodd" clip-rule="evenodd" d="M1140.06 222.5L1140.06 214.124L1142.61 214.124L1142.61 228.935L1131.18 216.971L1132.98 215.087L1140.06 222.5Z" fill="#E6E6E6"/>
<path fill-rule="evenodd" clip-rule="evenodd" d="M1171.08 222.5L1178.16 215.087L1179.96 216.971L1168.53 228.935L1168.53 214.124L1171.08 214.124L1171.08 222.5Z" fill="#E6E6E6"/>
<path d="M1145.92 227.719L1165.75 227.719L1165.75 223.161L1145.92 223.161L1145.92 227.719Z" fill="#E6E6E6"/>
<path fill-rule="evenodd" clip-rule="evenodd" d="M1145.93 218.631L1145.93 215.349C1145.93 214.918 1145.95 214.49 1146.01 214.072L1165.68 214.072C1165.73 214.49 1165.75 214.918 1165.75 215.349L1165.75 218.631L1145.93 218.631Z" fill="#E6E6E6"/>
<path fill-rule="evenodd" clip-rule="evenodd" d="M1147.58 209.541C1149.36 206.799 1152.37 205 1155.77 205C1159.19 205 1162.19 206.799 1163.98 209.541L1147.58 209.541Z" fill="#E6E6E6"/>
</svg>
