<svg width="311" height="697" viewBox="0 0 311 697" fill="none" xmlns="http://www.w3.org/2000/svg">
<path fill-rule="evenodd" clip-rule="evenodd" d="M140.74 635.828C63.0101 635.828 0 572.815 0 495.083V493.521C0 493.521 0.538815 493.521 1.56178 493.521C72.1388 493.521 130.589 545.473 140.74 613.228V516.95H169.391V613.228C179.55 545.473 238 493.521 308.577 493.521H310.139V495.083C310.139 572.815 247.129 635.828 169.399 635.828H169.391V696.84H140.74V635.828Z" fill="#E6E6E6"/>
<path fill-rule="evenodd" clip-rule="evenodd" d="M204.408 293.521H105.735C105.735 266.293 127.841 244.187 155.071 244.187C182.301 244.187 204.408 266.293 204.408 293.521ZM218.081 207.807C231.7 184.227 261.897 176.136 285.473 189.75C309.055 203.364 317.145 233.561 303.534 257.141C289.916 280.721 259.719 288.812 236.144 275.198C212.561 261.584 204.47 231.387 218.081 207.807ZM92.0611 207.807C105.672 231.387 97.582 261.584 73.9991 275.198C50.424 288.812 20.2271 280.721 6.6083 257.141C-7.00265 233.561 1.0873 203.364 24.6702 189.75C48.2454 176.136 78.4423 184.227 92.0611 207.807ZM155.071 122.093C182.301 122.093 204.408 144.199 204.408 171.427C204.408 198.655 182.301 220.76 155.071 220.76C127.841 220.76 105.735 198.655 105.735 171.427C105.735 144.199 127.841 122.093 155.071 122.093ZM6.6083 85.713C20.2271 62.1332 50.424 54.0424 73.9991 67.6557C97.582 81.2697 105.672 111.467 92.0611 135.047C78.4423 158.627 48.2454 166.718 24.6702 153.104C1.0873 139.491 -7.00265 109.294 6.6083 85.713ZM303.534 85.713C317.145 109.294 309.055 139.491 285.473 153.104C261.897 166.718 231.7 158.627 218.081 135.047C204.47 111.467 212.561 81.2697 236.144 67.6557C259.719 54.0424 289.916 62.1332 303.534 85.713ZM155.071 0C182.301 0 204.408 22.1055 204.408 49.3328C204.408 76.5609 182.301 98.6664 155.071 98.6664C127.841 98.6664 105.735 76.5609 105.735 49.3328C105.735 22.1055 127.841 0 155.071 0Z" fill="#E6E6E6"/>
</svg>
