<svg width="1281" height="900" viewBox="0 0 1281 900" fill="none" xmlns="http://www.w3.org/2000/svg">
<path fill-rule="evenodd" clip-rule="evenodd" d="M622.41 866.578C516.143 866.578 430 780.419 430 674.137V672C430 672 430.737 672 432.135 672C528.623 672 608.531 743.035 622.41 835.677V704.036H661.58V835.677C675.469 743.035 755.377 672 851.865 672H854V674.137C854 780.419 767.857 866.578 661.59 866.578H661.58V950H622.41V866.578Z" fill="#E6E6E6"/>
<path fill-rule="evenodd" clip-rule="evenodd" d="M1049.41 866.578C943.143 866.578 857 780.419 857 674.137V672C857 672 857.737 672 859.135 672C955.623 672 1035.53 743.035 1049.41 835.677V704.036H1088.58V835.677C1102.47 743.035 1182.38 672 1278.86 672H1281V674.137C1281 780.419 1194.86 866.578 1088.59 866.578H1088.58V950H1049.41V866.578Z" fill="#E6E6E6"/>
<path fill-rule="evenodd" clip-rule="evenodd" d="M195.41 866.578C89.1431 866.578 3 780.419 3 674.137V672C3 672 3.73663 672 5.13516 672C101.623 672 181.531 743.035 195.41 835.677V704.036H234.58V835.677C248.469 743.035 328.377 672 424.865 672H427V674.137C427 780.419 340.857 866.578 234.59 866.578H234.58V950H195.41V866.578Z" fill="#E6E6E6"/>
<path fill-rule="evenodd" clip-rule="evenodd" d="M706.449 402H571.551C571.551 364.71 601.774 334.434 639 334.434C676.226 334.434 706.449 364.71 706.449 402ZM725.142 284.608C743.76 252.314 785.043 241.232 817.273 259.877C849.514 278.523 860.573 319.88 841.966 352.174C823.347 384.47 782.065 395.551 749.835 376.905C717.594 358.26 706.534 316.904 725.142 284.608ZM552.858 284.608C571.466 316.904 560.406 358.26 528.165 376.905C495.935 395.551 454.653 384.47 436.034 352.174C417.427 319.88 428.486 278.523 460.727 259.877C492.957 241.232 534.239 252.314 552.858 284.608ZM639 167.216C676.226 167.216 706.449 197.493 706.449 234.783C706.449 272.074 676.226 302.349 639 302.349C601.774 302.349 571.551 272.074 571.551 234.783C571.551 197.493 601.774 167.216 639 167.216ZM436.034 117.391C454.653 85.0964 495.935 74.0154 528.165 92.6598C560.406 111.305 571.466 152.663 552.858 184.957C534.239 217.253 492.957 228.334 460.727 209.688C428.486 191.044 417.427 149.686 436.034 117.391ZM841.966 117.391C860.573 149.686 849.514 191.044 817.273 209.688C785.043 228.334 743.76 217.253 725.142 184.957C706.534 152.663 717.594 111.305 749.835 92.6598C782.065 74.0154 823.347 85.0964 841.966 117.391ZM639 0C676.226 0 706.449 30.2752 706.449 67.5652C706.449 104.856 676.226 135.132 639 135.132C601.774 135.132 571.551 104.856 571.551 67.5652C571.551 30.2752 601.774 0 639 0Z" fill="#E6E6E6"/>
<path fill-rule="evenodd" clip-rule="evenodd" d="M1133.45 652H998.551C998.551 614.71 1028.77 584.434 1066 584.434C1103.23 584.434 1133.45 614.71 1133.45 652ZM1152.14 534.608C1170.76 502.314 1212.04 491.232 1244.27 509.877C1276.51 528.523 1287.57 569.88 1268.97 602.174C1250.35 634.47 1209.06 645.551 1176.83 626.905C1144.59 608.26 1133.53 566.904 1152.14 534.608ZM1066 417.216C1103.23 417.216 1133.45 447.493 1133.45 484.783C1133.45 522.074 1103.23 552.349 1066 552.349C1028.77 552.349 998.551 522.074 998.551 484.783C998.551 447.493 1028.77 417.216 1066 417.216ZM863.034 367.391C881.653 335.096 922.935 324.015 955.165 342.66C987.406 361.305 998.466 402.663 979.858 434.957C961.239 467.253 919.957 478.334 887.727 459.688C855.486 441.044 844.427 399.686 863.034 367.391ZM1268.97 367.391C1287.57 399.686 1276.51 441.044 1244.27 459.688C1212.04 478.334 1170.76 467.253 1152.14 434.957C1133.53 402.663 1144.59 361.305 1176.83 342.66C1209.06 324.015 1250.35 335.096 1268.97 367.391ZM1066 250C1103.23 250 1133.45 280.275 1133.45 317.565C1133.45 354.856 1103.23 385.132 1066 385.132C1028.77 385.132 998.551 354.856 998.551 317.565C998.551 280.275 1028.77 250 1066 250Z" fill="#E6E6E6"/>
<path fill-rule="evenodd" clip-rule="evenodd" d="M279.449 652H144.551C144.551 614.71 174.774 584.434 212 584.434C249.226 584.434 279.449 614.71 279.449 652ZM125.858 534.608C144.466 566.904 133.406 608.26 101.165 626.905C68.9353 645.551 27.6527 634.47 9.03428 602.174C-9.57341 569.88 1.48646 528.523 33.727 509.877C65.9568 491.232 107.239 502.314 125.858 534.608ZM212 417.216C249.226 417.216 279.449 447.493 279.449 484.783C279.449 522.074 249.226 552.349 212 552.349C174.774 552.349 144.551 522.074 144.551 484.783C144.551 447.493 174.774 417.216 212 417.216ZM9.03428 367.391C27.6527 335.096 68.9353 324.015 101.165 342.66C133.406 361.305 144.466 402.663 125.858 434.957C107.239 467.253 65.9568 478.334 33.727 459.688C1.48646 441.044 -9.57341 399.686 9.03428 367.391ZM414.966 367.391C433.573 399.686 422.514 441.044 390.273 459.688C358.043 478.334 316.76 467.253 298.142 434.957C279.534 402.663 290.594 361.305 322.835 342.66C355.065 324.015 396.347 335.096 414.966 367.391ZM212 250C249.226 250 279.449 280.275 279.449 317.565C279.449 354.856 249.226 385.132 212 385.132C174.774 385.132 144.551 354.856 144.551 317.565C144.551 280.275 174.774 250 212 250Z" fill="#E6E6E6"/>
</svg>
