<svg width="30" height="30" viewBox="0 0 30 30" fill="none" xmlns="http://www.w3.org/2000/svg">
<path d="M9.81152 20V12.128H11.8915V20H9.81152ZM9.81152 11.184V9.24805H11.8915V11.184H9.81152Z" fill="#E6E6E6"/>
<path d="M18.1391 20V15.232C18.1391 14.624 18.0378 14.2134 17.8351 14C17.6325 13.7867 17.2858 13.68 16.7951 13.68C15.7178 13.68 15.1791 14.2827 15.1791 15.488V20H13.0991V12.128H15.0831V13.28C15.3285 12.832 15.6538 12.496 16.0591 12.272C16.4645 12.0374 16.9871 11.92 17.6271 11.92C18.0005 11.92 18.3471 11.9787 18.6671 12.096C18.9871 12.2027 19.2591 12.368 19.4831 12.592C19.7178 12.816 19.8991 13.0934 20.0271 13.424C20.1658 13.744 20.2351 14.1174 20.2351 14.544V20H18.1391Z" fill="#E6E6E6"/>
<rect x="2" y="2" width="26" height="26" rx="4" stroke="#E6E6E6" stroke-width="3"/>
</svg>
