<svg width="424" height="314" viewBox="0 0 424 314" fill="none" xmlns="http://www.w3.org/2000/svg">
<path fill-rule="evenodd" clip-rule="evenodd" d="M125.858 29.3918C107.24 61.6863 65.9568 72.7683 33.7269 54.1228C13.4821 42.4147 1.58876 21.7514 0.148196 6.53672e-06L38.9999 3.14019e-06L83.4999 -7.5012e-07L134.755 -5.231e-06C134.114 10.0428 131.216 20.0929 125.858 29.3918ZM298.142 29.3918C292.784 20.0929 289.886 10.0429 289.245 1.17806e-05L339 7.43094e-06L386 3.32207e-06L423.852 1.29582e-08C422.411 21.7514 410.518 42.4147 390.273 54.1228C358.043 72.7683 316.761 61.6862 298.142 29.3918ZM212 146.784C174.774 146.784 144.551 116.507 144.551 79.2174C144.551 41.9263 174.774 11.6511 212 11.6511C249.226 11.6511 279.449 41.9263 279.449 79.2174C279.449 116.507 249.226 146.784 212 146.784ZM414.966 196.609C396.347 228.904 355.065 239.985 322.835 221.34C290.594 202.695 279.534 161.337 298.142 129.043C316.761 96.7475 358.043 85.6664 390.273 104.312C422.514 122.956 433.573 164.314 414.966 196.609ZM9.03429 196.609C-9.57341 164.314 1.48642 122.956 33.7269 104.312C65.9568 85.6664 107.24 96.7475 125.858 129.043C144.466 161.337 133.406 202.695 101.165 221.34C68.9352 239.985 27.6527 228.904 9.03429 196.609ZM212 314C174.774 314 144.551 283.725 144.551 246.435C144.551 209.144 174.774 178.868 212 178.868C249.226 178.868 279.449 209.144 279.449 246.435C279.449 283.725 249.226 314 212 314Z" fill="#E6E6E6"/>
</svg>
